<?xml version="1.0" encoding="UTF-8"?><svg xmlns="http://www.w3.org/2000/svg" width="32" height="20.96551724137931" viewBox="0 0 261 171" version="1.1"><path d="M127.000 17.000 C 127.000 17.550,127.648 18.000,128.441 18.000 C 129.234 18.000,130.160 17.550,130.500 17.000 C 130.840 16.450,130.191 16.000,129.059 16.000 C 127.927 16.000,127.000 16.450,127.000 17.000 M114.000 19.000 C 114.000 19.550,114.423 20.000,114.941 20.000 C 115.459 20.000,116.160 19.550,116.500 19.000 C 116.840 18.450,116.416 18.000,115.559 18.000 C 114.702 18.000,114.000 18.450,114.000 19.000 M141.500 19.000 C 141.160 19.550,141.584 20.000,142.441 20.000 C 143.298 20.000,144.000 19.550,144.000 19.000 C 144.000 18.450,143.577 18.000,143.059 18.000 C 142.541 18.000,141.840 18.450,141.500 19.000 M120.750 21.689 C 119.787 21.941,119.000 22.595,119.000 23.143 C 119.000 24.557,123.259 23.757,123.755 22.250 C 124.177 20.968,123.787 20.896,120.750 21.689 M103.000 23.500 C 103.000 24.325,103.450 25.000,104.000 25.000 C 104.550 25.000,105.000 24.325,105.000 23.500 C 105.000 22.675,104.550 22.000,104.000 22.000 C 103.450 22.000,103.000 22.675,103.000 23.500 M111.543 25.070 C 112.119 26.001,111.817 26.148,110.414 25.622 C 108.897 25.054,109.017 25.395,110.989 27.268 C 112.785 28.973,113.801 29.335,114.634 28.566 C 116.023 27.285,115.575 26.378,112.824 24.906 C 111.204 24.039,110.928 24.074,111.543 25.070 M144.000 25.059 C 144.000 25.641,143.581 25.859,143.069 25.543 C 142.557 25.226,141.856 25.425,141.510 25.984 C 141.165 26.543,140.432 27.000,139.882 27.000 C 139.332 27.000,139.203 26.480,139.595 25.845 C 140.048 25.114,139.869 24.963,139.106 25.435 C 137.526 26.411,139.549 29.007,141.872 28.985 C 143.289 28.971,143.305 28.843,142.000 28.000 C 141.175 27.467,140.838 26.967,141.250 26.890 C 141.662 26.813,142.450 26.637,143.000 26.500 C 143.550 26.363,144.900 26.194,146.000 26.125 C 147.100 26.056,148.000 25.550,148.000 25.000 C 148.000 24.450,147.100 24.000,146.000 24.000 C 144.900 24.000,144.000 24.477,144.000 25.059 M119.813 25.683 C 120.534 25.972,121.397 25.936,121.729 25.604 C 122.061 25.272,121.471 25.036,120.417 25.079 C 119.252 25.127,119.015 25.364,119.813 25.683 M122.458 26.067 C 122.141 26.580,120.982 27.000,119.882 27.000 C 118.782 27.000,118.160 27.450,118.500 28.000 C 118.840 28.550,118.454 29.000,117.642 29.000 C 116.831 29.000,116.004 29.488,115.805 30.084 C 115.606 30.681,114.022 31.267,112.285 31.387 C 110.547 31.508,109.341 31.258,109.604 30.832 C 110.223 29.830,105.852 28.748,100.623 28.609 C 97.920 28.538,95.903 29.101,94.753 30.250 C 93.789 31.212,92.358 32.000,91.572 32.000 C 90.787 32.000,89.373 33.750,88.429 35.889 C 86.809 39.560,86.543 39.729,83.677 38.907 C 82.007 38.428,80.299 37.484,79.881 36.808 C 79.307 35.878,78.662 35.995,77.232 37.290 C 76.193 38.230,74.933 39.000,74.432 39.000 C 71.230 39.000,65.164 42.726,63.934 45.447 C 63.174 47.126,62.654 48.837,62.777 49.250 C 62.900 49.663,62.550 50.000,62.000 50.000 C 61.450 50.000,61.000 49.550,61.000 49.000 C 61.000 47.487,58.054 47.803,56.359 49.498 C 55.376 50.481,54.283 50.707,53.181 50.156 C 52.025 49.578,50.946 49.899,49.725 51.183 C 48.009 52.988,48.042 53.029,50.725 52.385 C 52.251 52.018,53.166 52.078,52.759 52.517 C 52.351 52.957,52.527 53.930,53.150 54.681 C 54.046 55.761,53.937 55.913,52.629 55.411 C 51.719 55.062,50.311 55.327,49.500 56.000 C 48.689 56.673,47.345 56.963,46.513 56.643 C 45.681 56.324,45.000 56.514,45.000 57.067 C 45.000 57.694,44.157 57.639,42.750 56.918 C 40.613 55.824,40.585 55.856,42.201 57.548 C 43.804 59.228,43.779 59.502,41.754 62.345 C 40.573 64.004,40.222 64.981,40.973 64.517 C 42.026 63.866,42.158 64.111,41.546 65.586 C 41.110 66.639,40.459 68.816,40.101 70.425 C 39.546 72.912,38.597 73.634,33.770 75.243 C 28.607 76.964,27.134 78.336,26.514 82.000 C 26.467 82.275,25.979 83.400,25.430 84.500 C 24.233 86.895,24.260 95.993,25.470 97.951 C 26.101 98.973,25.908 99.179,24.737 98.729 C 23.862 98.394,22.612 98.762,21.960 99.548 C 21.307 100.335,20.374 100.731,19.887 100.430 C 19.399 100.129,19.000 100.377,19.000 100.983 C 19.000 101.588,18.100 103.050,17.000 104.230 C 15.900 105.411,15.000 107.327,15.000 108.489 C 15.000 109.650,14.490 111.110,13.867 111.733 C 13.228 112.372,13.057 113.658,13.475 114.683 C 14.172 116.396,14.263 116.385,15.063 114.500 C 15.612 113.207,15.706 114.001,15.329 116.745 C 14.715 121.213,16.266 124.559,18.363 123.290 C 18.988 122.912,17.363 124.991,14.750 127.909 C 10.210 132.982,10.000 133.479,10.000 139.167 C 10.000 143.651,9.692 144.938,8.750 144.387 C 8.063 143.985,8.287 144.556,9.250 145.657 C 11.220 147.909,11.675 151.535,9.845 150.405 C 9.124 149.959,8.963 150.131,9.415 150.862 C 9.813 151.506,10.577 151.761,11.113 151.430 C 12.424 150.620,17.218 153.838,16.480 155.032 C 16.159 155.552,16.594 155.709,17.448 155.382 C 18.302 155.054,19.000 155.188,19.000 155.680 C 19.000 156.172,20.445 156.685,22.211 156.819 C 23.977 156.954,25.770 157.612,26.195 158.282 C 26.798 159.230,26.973 159.223,26.985 158.250 C 26.993 157.563,27.338 157.109,27.750 157.242 C 28.163 157.375,29.569 156.731,30.875 155.810 C 32.841 154.425,33.115 153.650,32.463 151.318 C 32.029 149.768,31.759 147.971,31.864 147.325 C 31.968 146.679,31.596 145.869,31.038 145.523 C 30.457 145.164,30.261 145.516,30.580 146.347 C 30.886 147.145,30.656 148.095,30.068 148.458 C 29.481 148.821,29.000 148.631,29.000 148.036 C 29.000 147.415,27.829 147.686,26.250 148.674 C 24.738 149.621,23.819 150.024,24.209 149.571 C 24.599 149.119,23.587 147.580,21.959 146.151 C 19.706 144.174,19.000 142.693,19.000 139.944 C 19.000 135.409,19.837 134.543,22.175 136.658 C 24.659 138.906,25.548 137.693,24.329 133.719 L 23.322 130.439 26.593 130.821 C 29.976 131.216,32.319 134.000,29.269 134.000 C 28.026 134.000,27.889 134.289,28.733 135.133 C 29.356 135.756,30.621 135.975,31.545 135.621 C 32.927 135.091,33.001 134.706,31.962 133.454 C 30.949 132.234,30.947 131.468,31.948 129.597 C 33.814 126.111,32.927 123.495,29.889 123.526 C 28.483 123.541,27.333 122.998,27.333 122.320 C 27.333 121.643,27.708 121.320,28.167 121.603 C 28.625 121.886,29.000 121.615,29.000 121.000 C 29.000 120.385,29.375 120.114,29.833 120.397 C 30.292 120.680,30.667 120.257,30.667 119.456 C 30.667 117.603,28.599 117.573,27.079 119.405 C 25.842 120.895,23.573 120.957,22.279 119.535 C 21.851 119.065,22.040 118.989,22.700 119.368 C 23.590 119.878,23.757 118.886,23.346 115.528 C 22.967 112.434,23.160 111.000,23.955 111.000 C 24.594 111.000,24.840 110.550,24.500 110.000 C 24.160 109.450,24.321 109.000,24.857 109.000 C 25.394 109.000,26.430 110.350,27.160 112.000 C 28.472 114.963,30.000 116.004,30.000 113.934 C 30.000 112.545,27.947 108.662,26.822 107.923 C 26.339 107.606,27.110 106.815,28.535 106.166 C 30.414 105.310,30.934 105.298,30.425 106.122 C 29.993 106.821,30.257 107.069,31.111 106.765 C 31.875 106.493,33.291 106.677,34.257 107.174 C 37.469 108.826,43.026 101.370,39.984 99.490 C 39.425 99.144,39.223 98.448,39.536 97.942 C 39.848 97.437,39.400 97.293,38.541 97.623 C 37.402 98.060,37.147 97.782,37.600 96.600 C 38.072 95.371,37.804 95.138,36.496 95.640 C 35.067 96.188,34.894 95.910,35.492 94.026 C 35.987 92.464,35.864 91.966,35.100 92.438 C 33.736 93.281,32.565 90.575,33.378 88.457 C 33.820 87.306,34.432 87.161,35.789 87.887 C 36.902 88.483,38.169 88.505,39.054 87.946 C 40.138 87.259,40.173 87.027,39.191 87.015 C 38.448 87.007,38.194 86.494,38.605 85.830 C 39.091 85.043,38.783 84.869,37.664 85.299 C 35.582 86.098,35.555 85.588,37.571 83.571 C 39.512 81.630,41.000 81.549,41.000 83.383 C 41.000 84.144,41.885 84.998,42.966 85.281 C 44.047 85.564,44.835 85.335,44.716 84.772 C 44.597 84.210,45.043 83.550,45.706 83.306 C 46.481 83.021,46.763 83.634,46.496 85.020 C 46.150 86.815,46.326 86.974,47.540 85.967 C 48.343 85.300,49.000 85.125,49.000 85.578 C 49.000 86.030,49.540 85.860,50.200 85.200 C 51.871 83.529,53.329 83.700,52.644 85.485 C 52.170 86.719,52.400 86.767,53.997 85.770 C 55.163 85.042,55.509 84.314,54.875 83.923 C 54.300 83.567,53.867 82.877,53.913 82.388 C 54.177 79.587,52.520 74.813,51.001 74.001 C 48.526 72.676,47.798 67.319,50.116 67.490 C 51.061 67.560,52.475 68.149,53.259 68.800 C 54.043 69.450,54.980 69.687,55.342 69.325 C 56.513 68.154,56.045 67.245,53.996 66.709 C 52.631 66.352,52.192 65.662,52.621 64.545 C 53.114 63.260,54.364 62.969,58.375 63.202 C 63.136 63.479,63.522 63.695,63.816 66.250 C 64.107 68.777,66.000 70.294,66.000 68.000 C 66.000 66.588,69.337 66.756,70.947 68.250 C 72.024 69.250,72.152 69.250,71.588 68.250 C 71.200 67.563,71.344 67.000,71.910 67.000 C 72.475 67.000,72.676 66.320,72.357 65.489 C 71.927 64.369,72.259 64.134,73.639 64.583 C 74.752 64.945,75.056 64.849,74.395 64.344 C 72.443 62.853,70.775 56.015,71.465 52.336 C 71.983 49.572,71.842 48.971,70.814 49.573 C 70.091 49.997,70.357 49.366,71.405 48.172 C 73.470 45.818,74.980 45.114,73.097 47.383 C 72.208 48.454,72.312 48.906,73.556 49.383 C 75.819 50.252,76.000 50.186,76.000 48.500 C 76.000 47.571,76.942 47.000,78.475 47.000 C 80.674 47.000,80.885 47.324,80.368 49.908 C 79.915 52.177,80.237 53.057,81.837 53.913 C 83.804 54.965,83.829 54.899,82.469 52.278 C 80.657 48.785,82.394 46.432,84.521 49.500 C 87.326 53.545,89.403 55.014,91.850 54.687 C 94.538 54.327,94.977 53.216,95.339 45.864 C 95.583 40.881,97.494 37.592,99.660 38.423 C 100.397 38.706,101.000 38.552,101.000 38.082 C 101.000 37.612,102.347 37.029,103.992 36.788 C 105.638 36.546,106.806 36.527,106.588 36.745 C 105.379 37.955,112.860 48.011,114.938 47.968 C 117.331 47.919,119.462 45.770,119.854 43.009 C 120.362 39.429,123.938 34.762,125.665 35.425 C 126.466 35.732,126.833 35.539,126.493 34.989 C 126.157 34.445,126.557 34.000,127.382 34.000 C 129.704 34.000,130.242 35.761,128.271 36.908 C 126.696 37.825,126.933 38.000,129.750 38.000 C 130.162 38.000,130.500 37.588,130.500 37.083 C 130.500 36.579,130.838 35.829,131.250 35.417 C 131.662 35.004,132.000 35.310,132.000 36.096 C 132.000 36.882,133.153 38.391,134.562 39.449 C 136.455 40.871,136.974 41.968,136.550 43.656 C 135.785 46.705,140.183 49.923,142.494 48.005 C 143.310 47.328,143.735 46.380,143.437 45.898 C 143.140 45.417,143.594 45.291,144.448 45.618 C 145.421 45.992,146.000 45.660,146.000 44.729 C 146.000 43.086,148.187 40.952,150.200 40.630 C 152.017 40.340,155.732 38.068,154.450 38.030 C 153.873 38.014,152.860 38.540,152.200 39.200 C 151.397 40.003,151.000 40.038,151.000 39.307 C 151.000 37.518,153.919 36.943,156.279 38.266 C 159.447 40.043,162.997 44.224,162.999 46.179 C 162.999 47.102,162.438 48.463,161.750 49.202 C 160.434 50.618,159.302 54.032,160.568 52.766 C 160.972 52.362,161.797 52.649,162.401 53.404 C 163.006 54.159,165.227 55.080,167.337 55.450 C 170.950 56.084,171.133 55.995,170.480 53.936 C 169.966 52.319,170.114 51.952,171.047 52.529 C 171.820 53.007,172.059 52.904,171.663 52.264 C 170.856 50.959,175.229 48.000,177.965 48.000 C 179.084 48.000,180.000 48.498,180.000 49.107 C 180.000 49.716,180.638 49.969,181.417 49.670 C 182.698 49.178,183.605 50.162,183.828 52.285 C 183.873 52.717,184.831 54.240,185.955 55.670 C 187.080 57.100,188.000 58.745,188.000 59.326 C 188.000 59.907,187.292 59.509,186.426 58.441 C 185.560 57.374,185.117 57.031,185.442 57.681 C 185.767 58.330,185.575 59.144,185.016 59.490 C 184.457 59.835,184.000 61.633,184.000 63.486 C 184.000 65.338,183.438 67.047,182.750 67.283 C 182.063 67.520,182.287 67.595,183.250 67.450 C 184.296 67.293,185.032 67.854,185.079 68.844 C 185.124 69.790,185.366 69.988,185.644 69.306 C 185.911 68.650,186.730 68.343,187.463 68.624 C 188.197 68.906,189.095 68.656,189.458 68.068 C 189.821 67.481,190.568 67.000,191.118 67.000 C 191.668 67.000,191.840 67.450,191.500 68.000 C 191.160 68.550,191.584 69.000,192.441 69.000 C 193.298 69.000,194.000 68.325,194.000 67.500 C 194.000 66.126,192.779 65.541,190.676 65.906 C 190.222 65.985,190.141 65.581,190.495 65.008 C 190.849 64.436,191.548 64.221,192.048 64.530 C 192.549 64.839,193.910 64.583,195.072 63.961 C 197.430 62.699,202.415 63.520,201.489 65.018 C 201.159 65.552,201.584 65.713,202.448 65.382 C 204.465 64.608,204.419 65.957,202.327 68.943 C 201.407 70.257,201.144 71.029,201.742 70.660 C 202.340 70.290,203.080 70.553,203.385 71.244 C 203.762 72.095,203.913 72.016,203.852 71.000 C 203.630 67.267,203.939 66.704,205.500 68.000 C 207.600 69.743,207.369 74.356,205.079 76.429 C 203.229 78.103,203.168 78.072,203.438 75.611 C 203.593 74.206,203.329 73.297,202.851 73.592 C 202.374 73.887,202.176 75.186,202.410 76.479 C 202.645 77.772,202.560 79.106,202.223 79.444 C 201.885 79.782,201.508 80.745,201.385 81.585 C 201.198 82.859,201.419 82.897,202.725 81.814 C 204.077 80.691,204.198 80.799,203.622 82.617 C 203.197 83.955,203.507 85.176,204.477 85.981 C 205.315 86.676,206.000 88.116,206.000 89.181 C 206.000 90.268,206.457 90.836,207.041 90.475 C 207.613 90.121,207.808 88.969,207.473 87.916 C 206.982 86.366,207.309 86.048,209.183 86.250 C 211.454 86.495,212.954 87.702,212.985 89.309 C 212.993 89.754,212.555 89.843,212.011 89.507 C 211.427 89.146,211.288 89.588,211.672 90.588 C 212.267 92.138,212.432 92.121,213.627 90.390 C 214.345 89.351,215.388 87.966,215.946 87.314 C 216.677 86.458,216.408 86.110,214.980 86.064 C 213.891 86.029,211.988 85.959,210.750 85.909 L 208.500 85.817 210.739 84.761 C 213.977 83.233,219.494 84.981,219.497 87.537 C 219.499 88.617,219.963 89.421,220.528 89.324 C 221.094 89.227,222.034 90.671,222.616 92.533 C 223.199 94.394,223.364 95.725,222.983 95.490 C 222.602 95.254,221.260 96.159,220.000 97.500 C 218.740 98.841,217.212 99.655,216.605 99.309 C 215.997 98.963,215.834 99.048,216.241 99.498 C 216.649 99.948,216.486 100.914,215.880 101.645 C 215.204 102.459,215.079 104.044,215.557 105.737 C 216.712 109.827,216.739 109.933,216.875 110.786 C 216.944 111.218,217.867 111.571,218.927 111.571 C 219.986 111.571,220.666 111.269,220.438 110.899 C 220.209 110.529,220.648 109.707,221.414 109.072 C 222.469 108.196,222.901 108.203,223.201 109.102 C 223.498 109.993,224.116 110.008,225.694 109.164 C 227.526 108.183,228.132 108.484,230.452 111.526 C 231.914 113.443,232.822 115.479,232.469 116.050 C 232.116 116.621,232.429 117.829,233.164 118.736 C 234.293 120.129,234.280 120.251,233.080 119.528 C 231.981 118.865,231.823 119.098,232.383 120.555 C 232.780 121.591,232.795 122.129,232.416 121.749 C 232.036 121.370,230.480 121.946,228.959 123.030 C 227.437 124.113,225.777 125.000,225.270 125.000 C 224.210 125.000,219.445 129.846,220.079 130.279 C 221.287 131.103,225.944 132.996,229.259 134.011 C 231.327 134.644,232.777 135.552,232.481 136.030 C 232.186 136.508,232.894 137.408,234.055 138.029 C 236.087 139.117,236.098 139.214,234.333 140.661 C 232.569 142.107,232.569 142.142,234.323 141.585 C 235.649 141.164,236.057 141.460,235.823 142.671 C 235.645 143.586,234.875 144.542,234.111 144.797 C 233.347 145.051,232.978 144.844,233.292 144.337 C 233.605 143.830,232.880 143.347,231.681 143.263 C 229.728 143.126,229.685 143.215,231.271 144.116 C 232.245 144.670,232.738 145.615,232.367 146.216 C 231.927 146.927,232.182 147.026,233.095 146.501 C 233.868 146.056,233.606 146.579,232.512 147.662 C 231.359 148.805,229.624 149.460,228.380 149.222 C 227.200 148.996,225.936 149.295,225.571 149.885 C 225.107 150.636,199.456 150.962,140.204 150.970 C 86.291 150.976,56.043 150.635,56.995 150.030 C 58.278 149.214,58.207 148.865,56.495 147.571 C 55.398 146.742,54.050 146.056,53.500 146.047 C 52.833 146.036,52.833 146.276,53.500 146.765 C 55.784 148.444,55.024 150.044,52.257 149.383 C 48.564 148.500,47.860 148.035,48.543 146.931 C 48.859 146.419,48.602 146.000,47.970 146.000 C 47.163 146.000,47.006 144.146,47.441 139.750 C 47.782 136.313,48.159 131.630,48.280 129.345 C 48.401 127.061,48.824 125.391,49.221 125.636 C 50.270 126.285,51.323 121.331,50.440 119.902 C 49.953 119.116,50.111 118.951,50.889 119.432 C 52.241 120.267,55.247 118.208,54.482 116.971 C 53.593 115.532,55.925 110.836,57.153 111.594 C 57.845 112.022,58.039 111.872,57.636 111.220 C 56.730 109.754,61.136 100.838,62.507 101.364 C 63.504 101.747,63.964 100.311,64.300 95.764 C 64.385 94.624,64.767 94.367,65.414 95.014 C 67.179 96.779,67.968 96.060,67.613 93.012 C 67.297 90.296,68.986 87.319,70.171 88.505 C 70.439 88.773,71.714 87.869,73.004 86.496 C 75.384 83.962,78.000 83.179,78.000 85.000 C 78.000 85.550,78.482 86.000,79.072 86.000 C 79.661 86.000,80.012 84.987,79.852 83.750 C 79.509 81.095,80.750 78.728,82.061 79.538 C 82.569 79.852,83.775 79.600,84.742 78.979 C 86.404 77.910,86.405 77.879,84.750 78.393 C 82.273 79.163,82.578 78.507,85.623 76.511 C 87.370 75.367,87.983 75.245,87.460 76.146 C 87.027 76.891,87.850 76.263,89.289 74.750 C 92.064 71.832,94.000 71.204,94.000 73.223 C 94.000 73.895,94.701 73.444,95.558 72.221 C 96.415 70.997,96.878 69.612,96.588 69.143 C 96.298 68.673,97.172 68.501,98.530 68.761 C 99.889 69.021,101.000 69.856,101.000 70.617 C 101.000 71.377,101.648 72.000,102.441 72.000 C 104.546 72.000,105.247 70.309,103.431 69.612 C 101.027 68.690,102.766 67.000,106.118 67.000 C 107.863 67.000,108.860 67.418,108.500 68.000 C 107.714 69.272,109.051 69.264,111.000 67.985 C 112.215 67.187,112.250 66.839,111.183 66.150 C 109.780 65.244,121.689 63.556,128.000 63.767 C 138.004 64.101,146.166 65.285,144.866 66.214 C 143.821 66.960,143.913 67.056,145.261 66.622 C 148.155 65.689,153.183 67.081,152.582 68.648 C 152.159 69.750,152.694 69.714,155.277 68.462 L 158.500 66.901 156.139 68.951 C 154.841 70.078,154.188 71.000,154.689 71.000 C 155.190 71.000,156.101 70.499,156.713 69.887 C 157.325 69.275,158.376 69.114,159.048 69.530 C 159.909 70.062,159.599 70.644,158.000 71.500 C 156.573 72.264,156.141 72.969,156.837 73.399 C 157.445 73.775,159.031 73.371,160.359 72.500 C 162.502 71.096,162.944 71.086,164.268 72.411 C 165.090 73.233,166.030 73.637,166.357 73.309 C 166.685 72.982,167.226 73.425,167.559 74.294 C 167.893 75.163,168.731 75.657,169.423 75.391 C 170.114 75.126,171.257 75.604,171.962 76.454 C 173.030 77.740,172.972 78.000,171.622 78.000 C 170.730 78.000,170.000 78.477,170.000 79.060 C 170.000 79.684,171.277 79.919,173.104 79.631 C 175.573 79.242,176.945 79.793,179.801 82.321 C 187.619 89.240,189.035 91.242,187.000 92.500 C 186.450 92.840,186.014 93.654,186.030 94.309 C 186.047 94.964,186.509 94.731,187.057 93.792 C 188.312 91.639,190.643 92.463,191.385 95.322 C 191.981 97.618,197.053 104.000,198.280 104.000 C 199.917 104.000,202.600 100.228,202.600 97.928 C 202.600 96.569,202.960 94.873,203.400 94.161 C 203.960 93.255,203.656 92.961,202.387 93.183 C 201.255 93.381,200.428 92.792,200.187 91.617 C 199.858 90.009,200.211 89.836,202.596 90.435 L 205.389 91.136 202.945 89.101 C 201.388 87.805,201.014 87.054,201.917 87.033 C 202.696 87.015,203.098 86.764,202.810 86.476 C 201.889 85.556,198.986 87.169,199.645 88.235 C 199.993 88.798,199.732 89.077,199.064 88.855 C 198.396 88.632,197.874 88.134,197.902 87.748 C 197.931 87.361,196.840 85.931,195.477 84.568 C 194.115 83.206,193.000 81.675,193.000 81.167 C 193.000 80.659,191.693 79.701,190.095 79.039 C 186.875 77.706,185.623 74.870,187.366 72.861 C 187.990 72.142,187.600 72.287,186.500 73.183 C 184.786 74.580,184.315 74.612,183.211 73.407 C 181.614 71.664,179.620 71.545,180.601 73.250 C 181.019 73.976,180.939 74.151,180.410 73.667 C 179.910 73.208,179.489 72.308,179.476 71.667 C 179.463 71.025,178.659 70.565,177.691 70.645 C 176.199 70.767,176.126 70.538,177.215 69.145 C 177.922 68.240,178.879 67.223,179.342 66.884 C 179.805 66.545,178.991 66.040,177.534 65.762 C 175.562 65.385,175.019 65.608,175.413 66.634 C 175.733 67.468,173.487 66.749,169.721 64.810 C 163.817 61.771,162.458 60.713,161.707 58.573 C 161.528 58.063,160.798 58.007,160.084 58.448 C 159.029 59.100,159.040 59.411,160.143 60.110 C 161.066 60.694,161.116 60.974,160.300 60.985 C 159.640 60.993,158.740 60.437,158.300 59.750 C 157.860 59.063,156.600 58.375,155.500 58.221 C 151.412 57.652,147.346 56.952,141.793 55.864 C 138.160 55.152,131.801 54.997,124.293 55.439 C 117.807 55.820,110.789 56.226,108.698 56.341 C 106.607 56.456,104.544 57.120,104.113 57.816 C 103.628 58.602,101.935 58.930,99.656 58.679 C 96.642 58.346,96.186 58.519,97.114 59.637 C 98.028 60.738,97.645 61.000,95.122 61.000 C 93.405 61.000,92.000 60.598,92.000 60.107 C 92.000 59.616,91.275 58.936,90.389 58.596 C 89.259 58.162,88.943 58.409,89.332 59.424 C 89.638 60.220,89.350 61.089,88.694 61.356 C 88.037 61.624,88.711 61.878,90.191 61.921 C 91.671 61.964,93.134 62.408,93.442 62.907 C 93.751 63.405,93.155 63.592,92.118 63.321 C 89.720 62.694,81.675 67.664,82.618 69.190 C 83.032 69.861,82.858 70.030,82.183 69.613 C 81.563 69.230,79.818 69.723,78.305 70.708 C 76.792 71.694,74.192 72.500,72.527 72.500 C 70.862 72.500,69.500 72.736,69.500 73.024 C 69.500 73.313,68.487 74.836,67.250 76.409 C 64.784 79.544,64.286 81.529,66.250 80.398 C 66.938 80.002,66.487 80.792,65.250 82.153 C 62.796 84.854,62.265 86.560,64.250 85.367 C 65.099 84.857,65.060 85.158,64.128 86.308 C 62.642 88.140,61.494 88.628,62.500 87.000 C 62.840 86.450,62.615 86.000,62.000 86.000 C 61.385 86.000,61.077 85.662,61.316 85.250 C 61.554 84.838,61.364 83.600,60.893 82.500 C 60.298 81.112,60.188 81.681,60.531 84.362 C 60.927 87.463,60.737 88.113,59.563 87.663 C 58.533 87.267,58.284 87.578,58.721 88.715 C 59.169 89.884,58.971 90.100,58.000 89.500 C 57.023 88.896,56.832 89.119,57.294 90.324 C 57.685 91.343,57.463 91.885,56.714 91.738 C 56.046 91.607,55.628 92.110,55.785 92.855 C 56.171 94.689,54.026 97.134,52.732 96.334 C 52.135 95.966,51.989 96.174,52.390 96.822 C 52.774 97.444,52.371 99.201,51.495 100.726 L 49.900 103.500 50.280 100.917 C 50.528 99.226,50.192 98.333,49.307 98.333 C 47.422 98.333,46.447 102.870,48.020 104.323 C 49.015 105.243,49.118 105.193,48.492 104.095 C 47.974 103.188,48.075 102.929,48.778 103.363 C 49.512 103.816,49.156 105.484,47.682 108.504 C 46.037 111.874,45.070 112.837,43.750 112.419 C 42.508 112.026,42.023 112.393,42.079 113.683 C 42.125 114.743,42.369 114.977,42.664 114.244 C 42.943 113.553,43.565 113.231,44.048 113.529 C 44.534 113.830,44.441 115.279,43.838 116.786 C 43.240 118.279,42.412 120.400,41.998 121.500 C 41.294 123.370,39.917 129.327,38.496 136.652 C 37.532 141.618,37.054 148.279,37.708 147.625 C 38.912 146.422,40.619 151.637,40.434 155.947 C 40.262 159.946,40.380 160.200,41.621 158.503 C 43.249 156.277,43.387 155.000,42.000 155.000 C 41.450 155.000,41.000 154.442,41.000 153.760 C 41.000 153.078,42.237 153.857,43.750 155.490 C 45.263 157.124,46.362 158.883,46.194 159.400 C 46.025 159.916,46.588 159.757,47.444 159.047 C 48.300 158.336,49.000 158.148,49.000 158.628 C 49.000 159.980,233.012 159.235,234.649 157.876 C 235.380 157.270,235.688 156.305,235.334 155.732 C 234.958 155.122,235.176 154.991,235.862 155.415 C 236.506 155.813,236.805 156.506,236.527 156.956 C 236.249 157.405,236.805 158.387,237.761 159.137 C 239.368 160.396,239.386 160.353,238.000 158.563 C 236.631 156.795,236.658 156.685,238.302 157.301 C 239.293 157.673,239.852 157.570,239.545 157.073 C 239.238 156.576,240.116 154.827,241.496 153.187 C 242.876 151.547,244.102 149.034,244.221 147.602 C 244.339 146.171,244.818 145.000,245.285 145.000 C 245.753 145.000,245.831 144.044,245.460 142.875 C 244.985 141.377,245.134 140.965,245.967 141.479 C 246.833 142.015,246.888 141.715,246.171 140.355 C 245.634 139.335,244.629 136.588,243.937 134.250 C 243.235 131.875,242.063 130.000,241.281 130.000 C 240.511 130.000,240.188 129.505,240.562 128.900 C 241.053 128.105,240.684 128.099,239.226 128.879 C 237.630 129.733,236.927 129.597,235.855 128.229 C 234.652 126.694,234.683 126.643,236.133 127.776 C 237.815 129.089,238.260 128.631,239.801 124.000 C 240.864 120.807,240.510 109.498,239.354 109.715 C 238.506 109.875,238.486 109.026,239.280 106.441 C 240.104 103.753,240.052 102.669,239.050 101.725 C 237.996 100.732,237.843 101.028,238.243 103.286 C 238.697 105.852,238.603 105.950,237.039 104.536 C 234.458 102.199,233.439 102.703,235.595 105.250 L 237.500 107.500 235.358 105.693 C 233.928 104.486,233.400 103.186,233.769 101.775 C 234.201 100.125,233.965 99.799,232.693 100.288 C 231.797 100.631,230.798 100.482,230.473 99.956 C 230.148 99.430,231.146 98.939,232.691 98.864 C 235.008 98.752,235.110 98.652,233.277 98.298 C 231.307 97.917,231.063 97.277,231.136 92.684 C 231.256 85.081,229.566 80.632,226.144 79.546 C 225.122 79.221,223.802 77.953,223.211 76.728 C 222.619 75.503,222.105 75.020,222.068 75.656 C 221.986 77.058,218.000 76.196,218.000 74.776 C 218.000 74.232,217.322 74.046,216.494 74.364 C 215.256 74.839,215.039 74.058,215.275 69.971 C 215.433 67.237,215.135 65.000,214.614 65.000 C 214.093 65.000,213.940 64.727,214.273 64.394 C 214.607 64.060,214.011 62.855,212.950 61.716 C 210.845 59.457,211.119 58.024,213.309 59.842 C 214.346 60.702,214.667 60.628,214.667 59.528 C 214.667 58.736,214.292 58.320,213.833 58.603 C 213.375 58.886,213.000 58.361,213.000 57.437 C 213.000 56.002,212.763 55.952,211.385 57.095 C 210.010 58.237,209.528 58.144,208.135 56.468 C 206.872 54.948,205.476 54.563,202.000 54.775 C 198.819 54.970,197.931 54.766,198.971 54.079 C 200.889 52.814,199.753 51.750,196.483 51.750 C 194.687 51.750,194.045 51.324,194.410 50.375 C 194.700 49.619,194.574 49.000,194.129 49.000 C 192.982 49.000,190.861 44.034,191.539 42.937 C 191.853 42.429,191.303 42.323,190.302 42.699 C 188.658 43.315,188.631 43.205,190.000 41.437 C 191.375 39.662,191.360 39.610,189.817 40.817 C 188.411 41.917,187.740 41.876,185.746 40.569 C 183.306 38.971,172.000 37.883,172.000 39.246 C 172.000 41.217,169.911 39.614,167.963 36.148 C 166.027 32.704,160.535 29.000,157.364 29.000 C 156.834 29.000,155.838 28.438,155.150 27.750 C 154.463 27.063,152.760 26.479,151.367 26.452 C 149.199 26.412,149.063 26.573,150.424 27.568 C 151.747 28.536,151.165 28.900,146.969 29.730 C 142.487 30.616,141.627 30.495,139.276 28.645 C 137.820 27.500,135.925 26.379,135.064 26.153 C 131.615 25.251,122.999 25.192,122.458 26.067 M96.500 27.000 C 96.840 27.550,97.541 28.000,98.059 28.000 C 98.577 28.000,99.000 27.550,99.000 27.000 C 99.000 26.450,98.298 26.000,97.441 26.000 C 96.584 26.000,96.160 26.450,96.500 27.000 M140.128 31.750 C 141.371 33.336,141.336 33.371,139.750 32.128 C 138.084 30.821,137.555 30.000,138.378 30.000 C 138.585 30.000,139.373 30.788,140.128 31.750 M155.250 30.662 C 154.563 30.940,153.438 30.940,152.750 30.662 C 152.063 30.385,152.625 30.158,154.000 30.158 C 155.375 30.158,155.938 30.385,155.250 30.662 M144.607 32.471 C 144.265 34.802,143.433 35.104,143.272 32.957 C 143.191 31.881,143.507 31.000,143.974 31.000 C 144.441 31.000,144.726 31.662,144.607 32.471 M82.000 32.941 C 82.000 33.459,82.450 34.160,83.000 34.500 C 83.550 34.840,84.000 34.416,84.000 33.559 C 84.000 32.702,83.550 32.000,83.000 32.000 C 82.450 32.000,82.000 32.423,82.000 32.941 M117.000 32.378 C 117.000 32.585,116.213 33.373,115.250 34.128 C 113.664 35.371,113.629 35.336,114.872 33.750 C 116.179 32.084,117.000 31.555,117.000 32.378 M72.733 34.124 C 73.412 34.808,74.219 35.115,74.526 34.807 C 74.834 34.499,74.279 33.940,73.293 33.564 C 71.868 33.022,71.753 33.136,72.733 34.124 M123.000 34.378 C 123.000 34.585,122.213 35.373,121.250 36.128 C 119.664 37.371,119.629 37.336,120.872 35.750 C 122.179 34.084,123.000 33.555,123.000 34.378 M166.128 35.750 C 167.371 37.336,167.336 37.371,165.750 36.128 C 164.084 34.821,163.555 34.000,164.378 34.000 C 164.585 34.000,165.373 34.788,166.128 35.750 M172.000 35.500 C 172.000 36.325,172.450 37.000,173.000 37.000 C 173.550 37.000,174.000 36.325,174.000 35.500 C 174.000 34.675,173.550 34.000,173.000 34.000 C 172.450 34.000,172.000 34.675,172.000 35.500 M105.405 38.845 C 105.864 39.590,105.297 40.005,103.809 40.015 C 102.016 40.027,101.825 40.236,102.952 40.949 C 103.751 41.455,104.725 41.670,105.117 41.428 C 105.509 41.186,106.057 41.553,106.336 42.244 C 106.614 42.935,106.878 42.514,106.921 41.309 C 106.964 40.104,106.480 38.797,105.845 38.405 C 105.130 37.962,104.962 38.130,105.405 38.845 M79.729 39.604 C 79.397 39.936,78.534 39.972,77.813 39.683 C 77.015 39.364,77.252 39.127,78.417 39.079 C 79.471 39.036,80.061 39.272,79.729 39.604 M179.250 40.662 C 178.563 40.940,177.438 40.940,176.750 40.662 C 176.063 40.385,176.625 40.158,178.000 40.158 C 179.375 40.158,179.938 40.385,179.250 40.662 M126.714 41.619 C 126.374 41.960,126.770 42.913,127.595 43.738 C 129.334 45.477,130.517 44.790,129.655 42.543 C 129.041 40.942,127.785 40.548,126.714 41.619 M139.206 43.947 C 139.443 45.568,139.270 46.667,138.819 46.388 C 138.017 45.893,137.625 41.000,138.387 41.000 C 138.599 41.000,138.968 42.326,139.206 43.947 M154.000 43.409 C 154.000 43.599,154.675 44.315,155.500 45.000 C 156.365 45.718,157.000 45.815,157.000 45.229 C 157.000 44.671,156.325 43.955,155.500 43.638 C 154.675 43.322,154.000 43.219,154.000 43.409 M100.500 45.000 C 100.160 45.550,100.584 46.000,101.441 46.000 C 102.298 46.000,103.000 45.550,103.000 45.000 C 103.000 44.450,102.577 44.000,102.059 44.000 C 101.541 44.000,100.840 44.450,100.500 45.000 M108.116 44.719 C 108.052 45.389,107.383 45.700,106.629 45.411 C 105.875 45.122,104.980 45.609,104.640 46.494 C 104.301 47.380,104.429 47.853,104.926 47.546 C 105.423 47.239,105.980 47.426,106.165 47.962 C 106.782 49.754,109.207 47.299,108.714 45.380 C 108.449 44.346,108.180 44.048,108.116 44.719 M147.015 44.750 C 147.007 45.438,146.992 46.299,146.983 46.663 C 146.973 47.028,148.211 47.454,149.733 47.609 C 152.249 47.866,152.319 47.791,150.500 46.781 C 149.400 46.171,148.169 45.182,147.765 44.585 C 147.265 43.846,147.026 43.898,147.015 44.750 M122.000 47.000 C 122.000 47.550,122.450 48.000,123.000 48.000 C 123.550 48.000,124.000 47.550,124.000 47.000 C 124.000 46.450,123.550 46.000,123.000 46.000 C 122.450 46.000,122.000 46.450,122.000 47.000 M172.000 48.378 C 172.000 48.585,171.213 49.373,170.250 50.128 C 168.664 51.371,168.629 51.336,169.872 49.750 C 171.179 48.084,172.000 47.555,172.000 48.378 M202.500 49.000 C 202.840 49.550,203.793 50.000,204.618 50.000 C 205.443 50.000,205.840 49.550,205.500 49.000 C 205.160 48.450,204.207 48.000,203.382 48.000 C 202.557 48.000,202.160 48.450,202.500 49.000 M60.412 50.605 C 62.834 51.534,61.246 53.000,57.819 53.000 C 55.209 53.000,54.940 52.778,56.000 51.500 C 57.371 49.848,58.070 49.706,60.412 50.605 M83.500 52.000 C 83.840 52.550,84.316 53.000,84.559 53.000 C 84.802 53.000,85.000 52.550,85.000 52.000 C 85.000 51.450,84.523 51.000,83.941 51.000 C 83.359 51.000,83.160 51.450,83.500 52.000 M173.929 53.250 C 173.130 53.938,172.648 54.409,172.857 54.298 C 173.585 53.911,176.000 56.865,176.030 58.179 C 176.050 59.017,176.431 58.865,177.073 57.763 C 177.763 56.578,177.742 55.387,177.007 54.013 C 175.736 51.638,175.788 51.651,173.929 53.250 M188.000 53.608 C 188.000 54.435,186.058 54.903,185.613 54.183 C 185.324 53.716,185.743 53.333,186.544 53.333 C 187.345 53.333,188.000 53.457,188.000 53.608 M195.400 56.235 C 196.078 56.688,195.829 56.975,194.750 56.985 C 193.574 56.995,193.026 56.262,193.079 54.750 C 193.132 53.247,193.347 52.998,193.729 54.000 C 194.043 54.825,194.795 55.831,195.400 56.235 M112.813 54.683 C 113.534 54.972,114.397 54.936,114.729 54.604 C 115.061 54.272,114.471 54.036,113.417 54.079 C 112.252 54.127,112.015 54.364,112.813 54.683 M84.143 55.907 C 83.137 56.532,83.090 56.937,83.960 57.475 C 85.332 58.323,86.362 57.572,85.854 56.095 C 85.646 55.489,84.940 55.412,84.143 55.907 M34.500 57.000 C 34.160 57.550,34.359 58.000,34.941 58.000 C 35.523 58.000,36.000 57.550,36.000 57.000 C 36.000 56.450,35.802 56.000,35.559 56.000 C 35.316 56.000,34.840 56.450,34.500 57.000 M130.750 56.716 C 129.238 56.945,126.763 56.945,125.250 56.716 C 123.737 56.487,124.975 56.300,128.000 56.300 C 131.025 56.300,132.262 56.487,130.750 56.716 M207.457 56.931 C 207.774 57.443,207.650 58.098,207.183 58.387 C 206.716 58.676,206.333 58.257,206.333 57.456 C 206.333 55.770,206.649 55.623,207.457 56.931 M142.729 57.604 C 142.397 57.936,141.534 57.972,140.813 57.683 C 140.015 57.364,140.252 57.127,141.417 57.079 C 142.471 57.036,143.061 57.272,142.729 57.604 M165.000 57.393 C 165.000 57.609,165.698 58.054,166.552 58.382 C 167.442 58.723,167.843 58.555,167.493 57.989 C 166.906 57.038,165.000 56.583,165.000 57.393 M59.250 60.662 C 58.563 60.940,57.438 60.940,56.750 60.662 C 56.063 60.385,56.625 60.158,58.000 60.158 C 59.375 60.158,59.938 60.385,59.250 60.662 M121.729 62.604 C 121.397 62.936,120.534 62.972,119.813 62.683 C 119.015 62.364,119.252 62.127,120.417 62.079 C 121.471 62.036,122.061 62.272,121.729 62.604 M136.729 62.604 C 136.397 62.936,135.534 62.972,134.813 62.683 C 134.015 62.364,134.252 62.127,135.417 62.079 C 136.471 62.036,137.061 62.272,136.729 62.604 M80.138 66.333 C 79.303 67.339,79.385 67.667,80.472 67.667 C 81.264 67.667,81.704 67.330,81.450 66.919 C 81.196 66.507,81.553 65.943,82.244 65.664 C 83.026 65.349,83.075 65.128,82.372 65.079 C 81.752 65.036,80.747 65.600,80.138 66.333 M50.651 69.468 C 50.341 70.275,50.424 71.144,50.836 71.399 C 51.248 71.653,51.650 70.993,51.730 69.931 C 51.903 67.634,51.432 67.432,50.651 69.468 M67.000 69.000 C 65.355 70.063,65.453 70.146,68.760 70.492 C 70.565 70.680,70.792 70.454,69.887 69.364 C 68.556 67.760,68.860 67.798,67.000 69.000 M144.000 68.893 C 144.000 69.960,147.063 71.271,147.810 70.524 C 148.098 70.236,147.782 70.000,147.108 70.000 C 146.434 70.000,146.160 69.550,146.500 69.000 C 146.840 68.450,146.416 68.000,145.559 68.000 C 144.702 68.000,144.000 68.402,144.000 68.893 M216.188 69.063 C 216.428 69.784,217.216 70.572,217.938 70.813 C 218.688 71.063,219.063 70.688,218.813 69.938 C 218.572 69.216,217.784 68.428,217.063 68.188 C 216.313 67.938,215.938 68.313,216.188 69.063 M31.674 71.408 C 31.111 72.874,31.759 74.000,33.167 74.000 C 34.283 74.000,34.234 71.263,33.105 70.565 C 32.612 70.260,31.968 70.640,31.674 71.408 M62.667 70.667 C 62.300 71.033,62.000 71.931,62.000 72.660 C 62.000 73.830,62.762 73.894,66.872 73.074 C 67.508 72.947,64.797 70.000,64.044 70.000 C 63.653 70.000,63.033 70.300,62.667 70.667 M138.500 71.850 C 137.400 72.207,136.381 73.082,136.236 73.793 C 136.045 74.726,136.462 74.828,137.736 74.161 C 139.836 73.060,144.418 74.514,143.505 75.992 C 143.162 76.546,142.121 77.003,141.191 77.007 C 138.594 77.017,134.245 80.330,134.781 81.889 C 135.048 82.663,134.807 82.999,134.238 82.647 C 133.642 82.279,133.052 83.430,132.821 85.410 C 132.499 88.162,132.741 88.743,134.098 88.481 C 135.329 88.244,135.635 88.679,135.256 90.127 C 134.381 93.475,138.639 97.000,143.560 97.000 C 148.052 97.000,154.487 94.820,153.350 93.683 C 152.974 93.307,153.207 93.000,153.868 93.000 C 154.704 93.000,154.996 91.025,154.829 86.500 C 154.673 82.289,154.171 80.000,153.403 80.000 C 152.750 80.000,151.924 78.835,151.567 77.412 C 151.113 75.600,150.555 75.097,149.709 75.735 C 148.141 76.917,143.792 77.145,144.495 76.009 C 144.791 75.530,144.568 74.851,144.000 74.500 C 143.432 74.149,143.200 73.485,143.485 73.024 C 143.770 72.563,142.990 72.409,141.751 72.680 C 139.943 73.076,139.795 72.963,141.000 72.102 C 142.637 70.932,141.633 70.831,138.500 71.850 M221.000 71.393 C 221.000 71.609,221.675 72.045,222.500 72.362 C 223.325 72.678,224.000 72.501,224.000 71.969 C 224.000 71.436,223.325 71.000,222.500 71.000 C 221.675 71.000,221.000 71.177,221.000 71.393 M109.000 73.000 C 109.000 73.550,109.675 74.000,110.500 74.000 C 111.325 74.000,112.000 73.550,112.000 73.000 C 112.000 72.450,111.325 72.000,110.500 72.000 C 109.675 72.000,109.000 72.450,109.000 73.000 M189.447 72.915 C 189.758 73.418,189.447 74.041,188.756 74.300 C 187.881 74.628,188.106 75.250,189.500 76.353 C 193.361 79.410,195.527 77.596,192.608 73.750 C 191.265 71.980,188.402 71.224,189.447 72.915 M71.410 73.855 C 71.701 74.325,70.827 75.753,69.469 77.029 C 68.111 78.305,67.000 78.875,67.000 78.297 C 67.000 77.718,67.670 76.689,68.489 76.009 C 69.308 75.329,69.731 74.374,69.430 73.887 C 69.129 73.399,69.332 73.000,69.882 73.000 C 70.432 73.000,71.120 73.385,71.410 73.855 M55.595 74.847 C 55.274 75.366,55.748 76.073,56.649 76.419 C 58.859 77.267,59.376 76.557,57.613 75.094 C 56.758 74.384,55.943 74.284,55.595 74.847 M76.000 74.378 C 76.000 74.585,75.213 75.373,74.250 76.128 C 72.664 77.371,72.629 77.336,73.872 75.750 C 75.179 74.084,76.000 73.555,76.000 74.378 M91.211 75.399 C 91.920 76.169,92.658 76.649,92.850 76.466 C 93.443 75.902,91.940 74.000,90.902 74.000 C 90.362 74.000,90.501 74.630,91.211 75.399 M128.000 77.000 C 128.000 77.550,128.423 78.000,128.941 78.000 C 129.459 78.000,130.160 77.550,130.500 77.000 C 130.840 76.450,130.416 76.000,129.559 76.000 C 128.702 76.000,128.000 76.450,128.000 77.000 M79.000 79.378 C 79.000 79.585,78.213 80.373,77.250 81.128 C 75.664 82.371,75.629 82.336,76.872 80.750 C 78.179 79.084,79.000 78.555,79.000 79.378 M21.000 82.500 C 21.000 83.875,21.450 85.000,22.000 85.000 C 22.550 85.000,23.000 83.875,23.000 82.500 C 23.000 81.125,22.550 80.000,22.000 80.000 C 21.450 80.000,21.000 81.125,21.000 82.500 M52.124 82.267 C 51.136 83.247,51.022 83.132,51.564 81.707 C 51.940 80.721,52.499 80.166,52.807 80.474 C 53.115 80.781,52.808 81.588,52.124 82.267 M196.565 80.895 C 196.260 81.388,196.661 82.040,197.455 82.344 C 198.418 82.714,198.713 82.416,198.342 81.449 C 197.697 79.769,197.331 79.655,196.565 80.895 M112.500 83.000 C 112.160 83.550,112.610 84.000,113.500 84.000 C 114.390 84.000,114.840 83.550,114.500 83.000 C 114.160 82.450,113.710 82.000,113.500 82.000 C 113.290 82.000,112.840 82.450,112.500 83.000 M129.000 82.887 C 129.000 83.374,127.650 83.971,126.000 84.213 C 124.350 84.455,123.000 84.255,123.000 83.768 C 123.000 83.281,122.502 83.190,121.893 83.566 C 121.121 84.043,121.197 84.515,122.143 85.125 C 123.269 85.851,123.246 86.163,122.008 86.958 C 120.843 87.707,120.781 88.181,121.724 89.124 C 122.666 90.066,122.555 90.635,121.215 91.720 C 119.678 92.966,119.727 93.001,121.684 92.055 C 122.886 91.475,125.023 91.000,126.434 91.000 C 127.845 91.000,129.027 90.662,129.059 90.250 C 129.581 83.615,129.637 82.000,129.346 82.000 C 129.156 82.000,129.000 82.399,129.000 82.887 M176.311 83.699 C 176.384 85.197,176.774 85.603,177.533 84.973 C 178.234 84.391,179.106 84.502,179.883 85.274 C 180.861 86.245,180.975 86.124,180.430 84.693 C 180.052 83.698,179.154 83.111,178.436 83.386 C 177.717 83.662,176.921 83.350,176.667 82.694 C 176.412 82.037,176.252 82.490,176.311 83.699 M145.729 83.604 C 145.397 83.936,144.534 83.972,143.813 83.683 C 143.015 83.364,143.252 83.127,144.417 83.079 C 145.471 83.036,146.061 83.272,145.729 83.604 M158.678 83.656 C 158.305 84.028,158.007 85.046,158.015 85.917 C 158.026 87.030,158.257 87.143,158.795 86.298 C 159.262 85.563,161.005 85.275,163.279 85.558 C 165.849 85.876,167.000 85.629,166.999 84.760 C 166.997 83.417,159.863 82.471,158.678 83.656 M194.128 85.750 C 195.371 87.336,195.336 87.371,193.750 86.128 C 192.084 84.821,191.555 84.000,192.378 84.000 C 192.585 84.000,193.373 84.787,194.128 85.750 M153.662 88.250 C 153.385 88.938,153.158 88.375,153.158 87.000 C 153.158 85.625,153.385 85.063,153.662 85.750 C 153.940 86.438,153.940 87.563,153.662 88.250 M145.531 87.950 C 145.163 88.545,144.395 88.744,143.824 88.391 C 143.152 87.976,143.255 87.461,144.114 86.929 C 145.719 85.938,146.449 86.464,145.531 87.950 M75.750 88.080 C 74.787 88.641,74.000 89.977,74.000 91.050 C 74.000 94.001,75.670 93.386,76.850 90.000 C 77.425 88.350,77.807 87.014,77.698 87.030 C 77.589 87.047,76.713 87.519,75.750 88.080 M142.382 88.552 C 142.723 89.442,142.555 89.843,141.989 89.493 C 141.445 89.157,141.000 88.459,141.000 87.941 C 141.000 86.503,141.717 86.820,142.382 88.552 M126.000 89.000 C 126.000 89.550,125.802 90.000,125.559 90.000 C 125.316 90.000,124.840 89.550,124.500 89.000 C 124.160 88.450,124.359 88.000,124.941 88.000 C 125.523 88.000,126.000 88.450,126.000 89.000 M157.225 91.223 C 157.280 93.146,156.550 94.627,155.019 95.700 L 152.730 97.303 155.460 98.733 C 157.396 99.747,158.044 100.722,157.689 102.082 C 157.239 103.802,158.070 104.463,160.250 104.118 C 160.662 104.053,161.000 104.450,161.000 105.000 C 161.000 105.550,161.480 106.000,162.067 106.000 C 162.680 106.000,162.864 105.147,162.500 104.000 C 161.968 102.325,162.323 101.998,164.683 101.985 C 166.232 101.976,168.069 101.608,168.764 101.167 C 170.436 100.106,170.778 91.378,169.209 89.809 C 168.535 89.135,165.545 88.531,162.564 88.466 C 157.216 88.350,157.145 88.387,157.225 91.223 M68.676 89.750 C 68.024 90.859,69.659 94.675,71.180 95.590 C 72.209 96.209,72.197 96.011,71.128 94.692 C 70.373 93.761,70.090 93.000,70.500 93.000 C 70.910 93.000,70.744 92.396,70.131 91.658 C 69.519 90.920,69.313 90.020,69.675 89.658 C 70.037 89.296,70.060 89.000,69.726 89.000 C 69.391 89.000,68.919 89.338,68.676 89.750 M159.382 90.552 C 159.723 91.442,159.555 91.843,158.989 91.493 C 158.445 91.157,158.000 90.459,158.000 89.941 C 158.000 88.503,158.717 88.820,159.382 90.552 M234.015 92.250 C 234.027 94.716,234.264 95.138,235.000 94.000 C 236.270 92.035,236.270 89.000,235.000 89.000 C 234.450 89.000,234.007 90.463,234.015 92.250 M17.000 91.059 C 17.000 91.641,17.450 91.840,18.000 91.500 C 18.550 91.160,19.000 90.684,19.000 90.441 C 19.000 90.198,18.550 90.000,18.000 90.000 C 17.450 90.000,17.000 90.477,17.000 91.059 M133.079 91.583 C 133.127 92.748,133.364 92.985,133.683 92.188 C 133.972 91.466,133.936 90.603,133.604 90.271 C 133.272 89.939,133.036 90.529,133.079 91.583 M174.158 92.000 C 174.158 93.375,174.385 93.938,174.662 93.250 C 174.940 92.563,174.940 91.438,174.662 90.750 C 174.385 90.063,174.158 90.625,174.158 92.000 M176.000 91.000 C 176.000 91.550,176.450 92.000,177.000 92.000 C 177.550 92.000,178.000 91.550,178.000 91.000 C 178.000 90.450,177.550 90.000,177.000 90.000 C 176.450 90.000,176.000 90.450,176.000 91.000 M49.000 91.882 C 49.000 92.432,49.450 93.160,50.000 93.500 C 50.550 93.840,51.000 93.668,51.000 93.118 C 51.000 92.568,50.550 91.840,50.000 91.500 C 49.450 91.160,49.000 91.332,49.000 91.882 M43.000 93.059 C 43.000 93.641,43.450 93.840,44.000 93.500 C 44.550 93.160,45.000 92.684,45.000 92.441 C 45.000 92.198,44.550 92.000,44.000 92.000 C 43.450 92.000,43.000 92.477,43.000 93.059 M112.000 93.000 C 112.000 93.550,112.648 94.000,113.441 94.000 C 114.234 94.000,115.160 93.550,115.500 93.000 C 115.840 92.450,115.191 92.000,114.059 92.000 C 112.927 92.000,112.000 92.450,112.000 93.000 M216.991 94.511 C 216.066 95.625,216.052 96.000,216.937 96.000 C 217.586 96.000,217.843 96.445,217.507 96.989 C 217.157 97.555,217.558 97.723,218.448 97.382 C 220.136 96.734,220.535 94.449,219.113 93.570 C 218.626 93.269,217.671 93.692,216.991 94.511 M180.000 95.000 C 180.000 95.550,180.450 96.000,181.000 96.000 C 181.550 96.000,182.000 95.550,182.000 95.000 C 182.000 94.450,181.550 94.000,181.000 94.000 C 180.450 94.000,180.000 94.450,180.000 95.000 M205.872 96.692 C 205.118 97.623,205.024 98.070,205.665 97.686 C 206.305 97.302,207.057 97.553,207.336 98.244 C 207.614 98.935,207.878 98.487,207.921 97.250 C 208.016 94.555,207.680 94.464,205.872 96.692 M21.000 97.059 C 21.000 97.641,21.450 97.840,22.000 97.500 C 22.550 97.160,23.000 96.684,23.000 96.441 C 23.000 96.198,22.550 96.000,22.000 96.000 C 21.450 96.000,21.000 96.477,21.000 97.059 M237.000 97.409 C 237.000 97.599,237.675 98.315,238.500 99.000 C 239.365 99.718,240.000 99.815,240.000 99.229 C 240.000 98.671,239.325 97.955,238.500 97.638 C 237.675 97.322,237.000 97.219,237.000 97.409 M147.667 100.667 C 147.300 101.033,147.000 101.798,147.000 102.367 C 147.000 102.993,147.466 102.934,148.183 102.217 C 148.834 101.566,149.134 100.801,148.850 100.517 C 148.566 100.233,148.033 100.300,147.667 100.667 M170.658 102.449 C 170.286 103.418,170.582 103.714,171.551 103.342 C 173.133 102.735,173.545 101.000,172.107 101.000 C 171.616 101.000,170.964 101.652,170.658 102.449 M203.250 104.487 C 201.258 105.361,200.506 106.873,200.882 109.250 C 200.947 109.662,200.373 110.000,199.607 110.000 C 198.841 110.000,197.941 110.712,197.607 111.582 C 196.609 114.183,196.899 114.402,198.920 112.572 C 200.753 110.914,200.893 110.931,201.967 112.938 C 202.586 114.095,202.820 115.482,202.487 116.021 C 202.154 116.559,202.385 117.000,203.000 117.000 C 203.615 117.000,203.840 117.450,203.500 118.000 C 203.160 118.550,203.310 119.000,203.833 119.000 C 204.355 119.000,205.090 120.222,205.465 121.715 C 205.840 123.209,207.013 126.334,208.073 128.660 C 209.133 130.987,210.000 133.338,210.000 133.886 C 210.000 134.434,210.563 135.206,211.250 135.601 C 211.938 135.997,212.165 135.951,211.756 135.500 C 211.347 135.048,212.022 134.163,213.256 133.534 C 214.914 132.688,215.443 131.621,215.281 129.445 C 215.096 126.962,215.203 126.814,215.961 128.500 L 216.859 130.500 216.915 128.500 C 216.998 125.492,214.260 118.467,213.109 118.733 C 212.533 118.866,212.740 117.154,213.591 114.743 C 214.631 111.796,214.706 110.894,213.840 111.760 C 212.170 113.430,211.000 113.323,211.000 111.500 C 211.000 110.675,211.450 110.000,212.000 110.000 C 212.550 110.000,213.000 109.550,213.000 109.000 C 213.000 108.450,212.264 108.000,211.365 108.000 C 210.465 108.000,208.778 106.987,207.615 105.750 C 205.905 103.931,205.069 103.689,203.250 104.487 M152.510 105.984 C 151.773 107.177,152.709 109.000,154.059 109.000 C 155.276 109.000,155.284 106.293,154.069 105.543 C 153.557 105.226,152.856 105.425,152.510 105.984 M220.500 109.000 C 220.160 109.550,219.121 109.993,218.191 109.985 C 216.734 109.971,216.707 109.835,218.000 109.000 C 219.958 107.734,221.282 107.734,220.500 109.000 M37.500 111.000 C 37.160 111.550,37.584 112.000,38.441 112.000 C 39.298 112.000,40.000 111.550,40.000 111.000 C 40.000 110.450,39.577 110.000,39.059 110.000 C 38.541 110.000,37.840 110.450,37.500 111.000 M225.507 110.989 C 225.157 111.555,225.558 111.723,226.448 111.382 C 228.180 110.717,228.497 110.000,227.059 110.000 C 226.541 110.000,225.843 110.445,225.507 110.989 M214.624 114.539 C 213.659 117.053,213.943 117.702,215.122 115.675 C 215.706 114.671,215.973 113.639,215.715 113.382 C 215.458 113.124,214.966 113.645,214.624 114.539 M224.000 115.000 C 224.000 115.550,224.450 116.000,225.000 116.000 C 225.550 116.000,226.000 115.550,226.000 115.000 C 226.000 114.450,225.550 114.000,225.000 114.000 C 224.450 114.000,224.000 114.450,224.000 115.000 M224.000 120.833 C 224.000 121.292,224.655 121.667,225.456 121.667 C 226.257 121.667,226.680 121.292,226.397 120.833 C 226.114 120.375,225.459 120.000,224.941 120.000 C 224.423 120.000,224.000 120.375,224.000 120.833 M228.500 121.000 C 228.840 121.550,229.316 122.000,229.559 122.000 C 229.802 122.000,230.000 121.550,230.000 121.000 C 230.000 120.450,229.523 120.000,228.941 120.000 C 228.359 120.000,228.160 120.450,228.500 121.000 M218.730 126.925 C 218.377 128.276,218.640 128.692,219.613 128.318 C 220.376 128.025,221.000 127.159,221.000 126.393 C 221.000 124.315,219.309 124.711,218.730 126.925 M198.000 126.393 C 198.000 126.609,198.698 127.054,199.552 127.382 C 200.442 127.723,200.843 127.555,200.493 126.989 C 199.906 126.038,198.000 125.583,198.000 126.393 M218.980 133.524 C 218.284 134.362,217.909 135.242,218.145 135.479 C 218.382 135.715,219.125 135.030,219.796 133.955 C 221.248 131.630,220.764 131.375,218.980 133.524 M235.500 135.000 C 236.495 136.100,237.085 137.000,236.810 137.000 C 236.535 137.000,235.495 136.100,234.500 135.000 C 233.505 133.900,232.915 133.000,233.190 133.000 C 233.465 133.000,234.505 133.900,235.500 135.000 M226.500 135.000 C 226.840 135.550,226.641 136.000,226.059 136.000 C 225.477 136.000,225.000 136.450,225.000 137.000 C 225.000 137.550,225.900 138.000,227.000 138.000 C 228.100 138.000,229.000 137.812,229.000 137.582 C 229.000 136.241,227.645 134.000,226.834 134.000 C 226.310 134.000,226.160 134.450,226.500 135.000 M255.079 136.583 C 255.127 137.748,255.364 137.985,255.683 137.188 C 255.972 136.466,255.936 135.603,255.604 135.271 C 255.272 134.939,255.036 135.529,255.079 136.583 M11.689 141.750 C 11.438 142.713,11.232 141.925,11.232 140.000 C 11.232 138.075,11.438 137.287,11.689 138.250 C 11.941 139.213,11.941 140.787,11.689 141.750 M6.000 140.500 C 6.000 141.875,6.450 143.000,7.000 143.000 C 7.550 143.000,8.000 141.875,8.000 140.500 C 8.000 139.125,7.550 138.000,7.000 138.000 C 6.450 138.000,6.000 139.125,6.000 140.500 M211.218 139.154 C 211.737 140.712,213.974 140.984,214.053 139.500 C 214.082 138.950,213.355 138.345,212.438 138.154 C 211.395 137.939,210.938 138.313,211.218 139.154 M39.689 143.750 C 39.438 144.713,39.232 143.925,39.232 142.000 C 39.232 140.075,39.438 139.287,39.689 140.250 C 39.941 141.213,39.941 142.787,39.689 143.750 M243.693 142.731 C 243.439 143.704,243.215 143.150,243.195 141.500 C 243.175 139.850,243.382 139.054,243.656 139.731 C 243.930 140.408,243.947 141.758,243.693 142.731 M28.000 141.000 C 28.000 141.550,28.450 142.000,29.000 142.000 C 29.550 142.000,30.000 141.550,30.000 141.000 C 30.000 140.450,29.550 140.000,29.000 140.000 C 28.450 140.000,28.000 140.450,28.000 141.000 M226.000 142.810 C 226.000 143.347,226.713 144.059,227.584 144.394 C 228.557 144.767,229.015 144.544,228.771 143.813 C 228.273 142.318,226.000 141.495,226.000 142.810 M48.000 144.383 C 48.000 144.594,48.901 145.002,50.001 145.290 C 51.102 145.578,51.751 145.405,51.442 144.907 C 50.904 144.036,48.000 143.594,48.000 144.383 M34.115 146.000 C 34.161 146.825,34.560 148.625,35.000 150.000 L 35.801 152.500 35.885 150.000 C 35.931 148.625,35.533 146.825,35.000 146.000 C 34.138 144.667,34.040 144.667,34.115 146.000 M3.409 148.376 C 2.574 150.553,3.158 151.138,5.021 149.987 C 6.164 149.280,6.220 148.820,5.274 147.874 C 4.329 146.929,3.922 147.039,3.409 148.376 M248.015 148.250 C 248.024 148.938,248.467 150.175,249.000 151.000 C 249.755 152.169,249.973 151.893,249.985 149.750 C 249.993 148.238,249.550 147.000,249.000 147.000 C 248.450 147.000,248.007 147.563,248.015 148.250 M16.500 151.000 C 17.495 152.100,18.085 153.000,17.810 153.000 C 17.535 153.000,16.495 152.100,15.500 151.000 C 14.505 149.900,13.915 149.000,14.190 149.000 C 14.465 149.000,15.505 149.900,16.500 151.000 M230.729 151.604 C 230.397 151.936,229.534 151.972,228.813 151.683 C 228.015 151.364,228.252 151.127,229.417 151.079 C 230.471 151.036,231.061 151.272,230.729 151.604 M28.250 155.662 C 27.563 155.940,26.438 155.940,25.750 155.662 C 25.063 155.385,25.625 155.158,27.000 155.158 C 28.375 155.158,28.938 155.385,28.250 155.662 M43.333 158.544 C 43.333 159.345,43.708 160.000,44.167 160.000 C 44.625 160.000,45.000 159.577,45.000 159.059 C 45.000 158.541,44.625 157.886,44.167 157.603 C 43.708 157.320,43.333 157.743,43.333 158.544 M218.750 157.747 C 211.738 157.919,200.263 157.919,193.250 157.747 C 186.238 157.575,191.975 157.435,206.000 157.435 C 220.025 157.435,225.763 157.575,218.750 157.747 M19.500 159.000 C 19.840 159.550,20.541 160.000,21.059 160.000 C 21.577 160.000,22.000 159.550,22.000 159.000 C 22.000 158.450,21.298 158.000,20.441 158.000 C 19.584 158.000,19.160 158.450,19.500 159.000  " fill="#E9542D" stroke="#E9542D" stroke-width="0.5" stroke-linejoin="round" stroke-linecap="round" /></svg>