<?xml version="1.0" encoding="UTF-8"?><svg xmlns="http://www.w3.org/2000/svg" width="32" height="31.607361963190183" viewBox="0 0 163 161" version="1.1"><path d="M81.229 15.171 C 80.315 16.085,80.000 23.595,80.000 44.441 L 80.000 72.482 59.565 52.065 C 41.896 34.412,38.918 31.823,37.565 32.946 C 36.704 33.661,36.000 34.757,36.000 35.382 C 36.000 36.007,45.008 45.515,56.017 56.509 L 76.033 76.500 67.267 77.000 C 58.587 77.495,58.497 77.527,58.184 80.250 L 57.867 83.000 66.674 83.000 L 75.481 83.000 55.640 102.860 C 35.744 122.774,33.501 125.895,38.402 126.839 C 39.746 127.098,45.934 121.553,60.140 107.360 L 80.000 87.519 80.000 95.137 C 80.000 103.120,81.186 105.634,84.373 104.410 C 86.191 103.713,86.297 103.102,86.135 94.250 C 86.072 90.813,86.358 88.000,86.770 88.000 C 87.182 88.000,96.286 96.775,107.000 107.500 C 117.813 118.323,127.278 127.000,128.272 127.000 C 129.257 127.000,130.338 126.282,130.675 125.403 C 131.113 124.262,125.682 118.195,111.644 104.144 C 100.840 93.330,92.000 84.159,92.000 83.765 C 92.000 83.371,99.537 82.925,108.750 82.774 L 125.500 82.500 125.500 80.000 L 125.500 77.500 108.034 77.225 L 90.567 76.951 111.027 56.473 C 128.245 39.240,131.318 35.728,130.422 34.307 C 129.836 33.379,128.789 32.430,128.096 32.199 C 127.402 31.967,117.654 40.919,106.433 52.091 L 86.031 72.404 85.766 43.466 C 85.536 18.501,85.291 14.486,83.979 14.234 C 83.143 14.073,81.905 14.495,81.229 15.171 M18.381 78.450 C 17.034 81.961,18.719 83.114,24.738 82.800 C 30.137 82.519,30.500 82.343,30.500 80.000 C 30.500 77.657,30.137 77.481,24.738 77.200 C 20.262 76.967,18.843 77.246,18.381 78.450 M37.378 78.458 C 35.935 82.218,37.631 83.097,45.735 82.792 C 53.273 82.509,53.500 82.427,53.500 80.000 C 53.500 77.573,53.273 77.491,45.735 77.208 C 39.475 76.972,37.855 77.214,37.378 78.458 M137.382 78.447 C 136.066 81.877,137.737 83.119,143.239 82.803 C 148.103 82.523,148.500 82.312,148.500 80.000 C 148.500 77.688,148.103 77.477,143.239 77.197 C 139.210 76.966,137.838 77.258,137.382 78.447 M81.229 115.171 C 79.298 117.102,79.525 143.361,81.487 144.989 C 82.305 145.668,83.667 145.958,84.513 145.633 C 86.790 144.760,86.278 114.674,83.979 114.233 C 83.143 114.073,81.905 114.495,81.229 115.171  " fill="#E9542D" stroke="#E9542D" stroke-width="0.5" stroke-linejoin="round" stroke-linecap="round" /></svg>