<?xml version="1.0" encoding="UTF-8"?><svg xmlns="http://www.w3.org/2000/svg" width="1024" height="223.0373044524669" viewBox="0 0 831 181" version="1.1"><path d="M5.000 66.265 L 5.000 126.531 9.942 128.286 C 12.715 129.271,17.213 132.159,20.192 134.867 C 24.173 138.486,26.583 139.863,29.833 140.371 C 38.935 141.797,48.299 148.744,52.902 157.485 C 54.056 159.677,55.003 161.927,55.007 162.485 C 55.011 163.043,56.532 164.534,58.387 165.797 C 60.242 167.060,63.052 169.410,64.630 171.019 C 67.454 173.898,67.675 173.945,78.500 173.969 C 119.345 174.062,141.081 161.978,146.560 136.131 C 150.331 118.341,145.905 103.512,133.421 92.102 L 127.770 86.937 132.941 81.469 C 139.811 74.205,142.243 68.525,142.791 58.460 C 144.100 34.426,131.195 16.188,108.130 9.473 C 98.412 6.644,86.969 6.000,46.428 6.000 L 5.000 6.000 5.000 66.265 M564.804 7.987 C 558.585 11.362,555.772 16.032,555.242 23.866 C 554.865 29.423,555.168 31.408,556.911 34.825 C 561.239 43.309,572.742 47.280,582.356 43.608 C 586.735 41.936,591.973 37.357,592.349 34.872 C 592.463 34.117,592.983 32.825,593.505 32.000 C 594.027 31.175,594.424 27.965,594.387 24.867 C 594.309 18.232,592.220 14.103,586.677 9.622 C 583.312 6.902,581.992 6.498,575.677 6.256 C 570.020 6.039,567.717 6.406,564.804 7.987 M509.667 7.667 C 509.300 8.033,509.000 20.408,509.000 35.167 C 509.000 60.049,508.572 64.352,506.439 60.901 C 505.197 58.892,493.692 54.068,486.129 52.385 C 480.804 51.201,476.359 50.897,470.586 51.324 C 454.245 52.532,443.175 57.087,432.752 66.892 C 420.946 77.996,415.035 93.380,415.035 113.000 C 415.035 125.532,417.058 134.663,422.105 144.900 C 432.447 165.880,452.729 176.870,479.000 175.728 C 491.023 175.206,498.339 172.914,505.543 167.415 C 508.004 165.537,510.238 164.000,510.509 164.000 C 510.779 164.000,511.000 165.538,511.000 167.418 C 511.000 174.162,510.578 174.000,528.107 174.000 L 544.000 174.000 544.000 90.500 L 544.000 7.000 527.167 7.000 C 517.908 7.000,510.033 7.300,509.667 7.667 M647.000 22.531 C 646.175 22.721,640.212 23.408,633.750 24.058 L 622.000 25.239 622.000 39.619 L 622.000 54.000 611.500 54.000 L 601.000 54.000 601.000 69.500 L 601.000 85.000 611.500 85.000 L 622.000 85.000 622.015 111.750 C 622.030 140.066,622.810 146.786,627.039 155.077 C 629.669 160.231,635.177 166.317,639.545 168.894 L 642.974 170.917 647.564 166.944 C 654.265 161.145,657.627 159.733,666.000 159.202 C 673.177 158.747,673.638 158.566,676.710 155.001 C 678.475 152.952,681.288 150.709,682.960 150.017 C 686.383 148.599,686.464 148.282,684.817 142.784 C 683.518 138.448,683.229 138.404,675.500 141.375 C 668.252 144.161,662.484 143.216,658.772 138.633 C 657.237 136.737,657.042 133.637,657.022 110.750 L 657.000 85.000 672.500 85.000 L 688.000 85.000 688.000 69.500 L 688.000 54.000 672.525 54.000 L 657.051 54.000 656.775 38.250 L 656.500 22.500 652.500 22.343 C 650.300 22.257,647.825 22.342,647.000 22.531 M95.541 42.880 C 100.049 44.927,104.676 49.862,105.622 53.631 C 106.413 56.784,105.466 62.734,103.865 64.662 C 103.188 65.478,100.804 67.121,98.567 68.312 C 94.750 70.346,92.889 70.500,68.250 70.825 L 42.000 71.172 42.000 56.086 L 42.000 41.000 66.750 41.022 C 88.598 41.041,91.974 41.259,95.541 42.880 M200.000 52.576 C 178.771 58.151,163.187 73.704,157.406 95.085 C 155.025 103.891,154.984 122.251,157.327 131.000 C 164.191 156.635,182.424 172.195,210.087 176.025 C 230.990 178.918,255.701 172.176,269.287 159.871 L 274.500 155.150 263.517 144.075 C 257.476 137.984,252.136 133.000,251.649 133.000 C 251.162 133.000,249.279 134.304,247.464 135.897 C 241.260 141.345,233.921 143.446,221.000 143.475 C 210.080 143.499,209.224 143.349,204.036 140.500 C 199.139 137.812,192.000 130.351,192.000 127.922 C 192.000 127.373,209.562 127.000,235.375 127.000 L 278.750 127.000 279.375 123.875 C 281.003 115.733,279.525 98.390,276.380 88.731 C 274.201 82.040,271.172 80.609,259.000 80.519 C 250.439 80.456,248.971 80.158,244.144 77.508 C 241.199 75.891,237.599 73.145,236.144 71.406 C 234.339 69.248,231.755 67.744,228.000 66.665 C 221.182 64.706,215.275 60.443,212.000 55.118 C 209.206 50.575,208.327 50.389,200.000 52.576 M744.322 52.075 C 731.523 54.269,718.312 61.391,710.521 70.297 C 705.996 75.471,700.267 85.199,699.736 88.612 C 699.574 89.651,699.161 90.950,698.817 91.500 C 695.962 96.070,695.136 120.258,697.460 131.227 C 699.115 139.034,702.405 147.000,703.976 147.000 C 704.574 147.000,706.737 147.726,708.782 148.613 C 711.235 149.677,715.733 150.272,722.000 150.363 C 730.392 150.484,732.038 150.816,736.113 153.212 C 738.650 154.703,742.029 157.403,743.622 159.212 C 745.544 161.393,748.151 162.929,751.365 163.774 C 756.835 165.213,764.264 169.948,766.568 173.463 C 767.961 175.589,768.453 175.714,771.803 174.792 C 776.827 173.408,784.058 169.664,787.823 166.495 L 790.932 163.880 791.436 166.190 C 791.713 167.460,792.066 169.625,792.220 171.000 L 792.500 173.500 808.750 173.775 L 825.000 174.050 825.000 114.025 L 825.000 54.000 808.607 54.000 C 790.677 54.000,791.000 53.887,791.000 60.133 L 791.000 63.102 787.750 60.665 C 776.982 52.592,760.421 49.316,744.322 52.075 M343.533 53.468 C 340.801 54.201,338.393 55.321,338.181 55.956 C 337.969 56.592,336.360 58.995,334.605 61.296 C 330.015 67.314,321.589 71.398,313.382 71.581 C 307.300 71.717,306.782 71.929,302.252 76.149 C 299.638 78.583,295.925 81.207,294.000 81.980 C 292.075 82.754,290.169 83.862,289.765 84.443 C 289.361 85.024,289.024 105.412,289.015 129.750 L 289.000 174.000 305.930 174.000 L 322.860 174.000 323.180 139.750 C 323.491 106.465,323.565 105.359,325.801 100.500 C 330.601 90.071,338.546 84.640,349.000 84.640 C 359.381 84.640,365.718 88.786,370.201 98.512 C 372.440 103.369,372.508 104.427,372.819 138.750 L 373.137 174.000 390.646 174.000 L 408.155 174.000 407.723 138.250 C 407.485 118.588,406.996 100.700,406.635 98.500 C 402.779 74.993,388.692 58.204,368.913 53.541 C 361.111 51.702,350.230 51.671,343.533 53.468 M557.032 113.500 L 557.029 174.000 574.985 174.000 L 592.940 174.000 592.985 113.500 L 593.029 53.000 575.032 53.000 L 557.035 53.000 557.032 113.500 M234.598 85.596 C 238.830 87.745,240.952 89.605,242.760 92.750 L 245.203 97.000 219.033 97.000 L 192.864 97.000 194.917 94.117 C 198.049 89.718,203.455 85.328,207.164 84.171 C 213.306 82.255,214.466 82.114,221.690 82.404 C 227.263 82.627,230.165 83.345,234.598 85.596 M774.961 86.572 C 784.762 91.901,789.293 100.347,789.406 113.500 C 789.469 120.861,789.064 123.430,787.180 127.607 C 782.477 138.035,772.863 144.169,761.138 144.223 C 748.699 144.281,739.745 139.464,734.548 129.921 C 730.687 122.828,729.779 110.192,732.536 101.892 C 734.873 94.857,742.541 87.092,749.500 84.713 C 757.265 82.059,768.118 82.852,774.961 86.572 M490.883 86.941 C 501.389 92.300,507.374 101.700,507.417 112.910 C 507.467 125.939,502.307 134.755,491.523 140.063 C 485.651 142.954,484.465 143.184,477.308 142.823 C 465.489 142.226,457.902 137.545,452.834 127.723 C 449.582 121.421,449.138 109.271,451.893 101.968 C 454.602 94.789,461.069 88.380,468.165 85.843 C 474.899 83.435,484.966 83.921,490.883 86.941 M96.375 106.449 C 102.096 108.590,109.542 115.328,110.528 119.257 C 112.381 126.639,107.758 133.391,98.699 136.532 C 94.370 138.033,89.190 138.407,67.750 138.766 L 42.000 139.197 42.000 121.522 L 42.000 103.846 66.750 104.236 C 87.602 104.564,92.268 104.913,96.375 106.449  " fill="#E9542D" stroke="#E9542D" stroke-width="0.5" stroke-linejoin="round" stroke-linecap="round" /></svg>