<?xml version="1.0" encoding="UTF-8"?><svg xmlns="http://www.w3.org/2000/svg" width="1024" height="219.86972255729796" viewBox="0 0 829 178" version="1.1"><path d="M0.000 89.000 L 0.000 178.000 414.500 178.000 L 829.000 178.000 829.000 89.000 L 829.000 0.000 414.500 0.000 L 0.000 0.000 0.000 89.000 M582.508 6.082 C 589.619 8.241,594.398 15.610,594.453 24.500 C 594.496 31.541,592.460 35.704,586.694 40.364 C 583.456 42.982,581.875 43.498,576.107 43.824 C 570.707 44.129,568.504 43.788,565.289 42.147 C 556.476 37.651,552.567 28.443,555.373 18.790 C 558.763 7.128,569.459 2.119,582.508 6.082 M107.662 8.123 C 122.555 12.732,132.553 20.622,138.255 32.268 C 142.016 39.950,143.258 46.608,142.831 56.816 C 142.386 67.481,139.320 74.820,132.569 81.381 C 130.056 83.823,128.000 86.162,128.000 86.577 C 128.000 86.993,128.272 87.061,128.604 86.729 C 130.015 85.319,140.466 97.791,143.865 104.940 C 146.858 111.235,147.465 113.701,147.813 120.977 C 149.016 146.143,135.719 163.490,110.144 170.117 C 99.792 172.799,70.985 174.135,66.837 172.125 C 65.277 171.369,64.000 170.363,64.000 169.889 C 64.000 169.416,62.208 167.843,60.018 166.393 C 57.326 164.612,55.268 162.082,53.667 158.583 C 49.065 148.531,41.360 142.169,30.968 139.840 C 26.805 138.907,24.249 137.487,20.262 133.892 C 17.163 131.098,12.976 128.488,10.012 127.504 L 5.000 125.839 5.000 65.350 L 5.000 4.861 52.250 5.229 C 99.464 5.597,99.506 5.599,107.662 8.123 M543.849 6.318 C 544.626 7.254,544.879 31.556,544.722 90.068 L 544.500 172.500 528.000 172.500 L 511.500 172.500 511.193 168.250 C 510.844 163.438,510.317 163.176,506.698 166.023 C 501.578 170.050,491.587 173.904,483.807 174.853 C 451.676 178.774,423.621 160.062,416.557 130.000 C 412.895 114.418,415.306 92.841,422.249 79.059 C 435.292 53.166,472.507 42.122,499.982 55.991 C 503.260 57.646,506.631 59.000,507.471 59.000 C 508.804 59.000,509.000 55.626,509.000 32.667 C 509.000 18.183,509.300 6.033,509.667 5.667 C 510.033 5.300,517.628 5.000,526.544 5.000 C 538.741 5.000,543.026 5.326,543.849 6.318 M657.000 37.059 L 657.000 53.000 672.500 53.000 L 688.000 53.000 688.000 68.500 L 688.000 84.000 672.500 84.000 L 657.000 84.000 657.000 109.050 C 657.000 129.130,657.292 134.663,658.470 136.941 C 659.937 139.779,664.383 142.030,668.399 141.967 C 670.242 141.939,677.471 139.637,682.079 137.611 C 683.286 137.081,683.935 137.839,684.829 140.825 C 686.461 146.271,686.302 147.769,684.017 148.495 C 682.926 148.841,680.009 151.149,677.534 153.624 C 673.159 157.999,672.847 158.129,666.246 158.342 C 658.461 158.592,652.661 161.087,646.861 166.680 C 643.625 169.801,642.972 170.056,640.967 168.982 C 636.684 166.690,629.814 159.566,627.522 155.040 C 622.437 144.997,622.000 141.580,622.000 111.818 L 622.000 84.000 610.960 84.000 L 599.920 84.000 600.052 68.533 L 600.183 53.066 610.842 52.783 L 621.500 52.500 621.777 38.250 C 621.979 27.883,622.388 23.982,623.277 23.936 C 623.950 23.900,631.475 23.085,640.000 22.124 C 648.525 21.162,655.837 20.543,656.250 20.747 C 656.663 20.951,657.000 28.291,657.000 37.059 M42.667 40.667 C 42.300 41.033,42.000 47.671,41.999 55.417 L 41.999 69.500 67.749 69.226 C 88.066 69.010,94.397 68.623,97.752 67.393 C 101.958 65.850,105.400 62.456,104.399 60.837 C 104.115 60.377,104.359 60.000,104.941 60.000 C 106.439 60.000,106.255 54.535,104.629 50.718 C 102.785 46.390,99.335 43.382,94.096 41.534 C 90.668 40.324,84.841 40.000,66.541 40.000 C 53.777 40.000,43.033 40.300,42.667 40.667 M210.000 50.892 C 210.000 51.382,212.020 54.030,214.489 56.777 C 219.016 61.811,226.133 66.000,230.161 66.000 C 231.447 66.000,234.145 67.881,236.736 70.585 C 243.573 77.721,254.385 81.368,262.257 79.195 C 265.197 78.383,266.634 78.588,270.401 80.355 C 274.468 82.262,275.147 83.067,276.517 87.605 C 277.364 90.413,278.492 95.363,279.023 98.605 C 280.096 105.159,280.337 121.958,279.393 124.418 C 278.852 125.827,274.037 126.000,235.373 126.000 L 191.959 126.000 194.007 130.013 C 198.502 138.825,209.728 143.597,223.945 142.739 C 234.094 142.127,242.008 139.397,247.661 134.558 L 251.664 131.132 263.047 142.547 L 274.429 153.962 270.965 157.566 C 266.282 162.436,255.982 168.445,247.189 171.436 C 221.362 180.220,192.320 175.625,174.764 159.977 C 161.075 147.776,153.872 128.062,155.357 106.861 C 157.265 79.622,173.244 59.263,198.500 51.893 C 205.157 49.951,210.000 49.529,210.000 50.892 M769.201 51.125 C 775.041 52.366,785.329 57.144,788.587 60.130 C 790.670 62.039,790.675 62.035,790.809 58.472 C 790.882 56.508,791.207 54.474,791.530 53.951 C 791.863 53.412,799.244 53.000,808.559 53.000 L 825.000 53.000 825.000 113.000 L 825.000 173.000 808.500 173.000 L 792.000 173.000 791.985 169.750 C 791.957 163.932,790.866 163.552,785.179 167.380 C 782.346 169.286,777.504 171.790,774.418 172.945 L 768.808 175.044 764.945 171.063 C 760.755 166.745,755.414 163.657,750.182 162.528 C 748.282 162.117,745.077 160.027,742.682 157.635 C 736.148 151.110,732.012 149.510,721.500 149.441 C 713.144 149.386,708.460 148.308,703.071 145.197 C 700.990 143.995,697.251 132.115,696.252 123.531 C 692.668 92.741,704.357 67.642,727.500 56.432 C 731.900 54.301,735.725 52.618,736.000 52.693 C 736.275 52.768,738.975 52.231,742.000 51.500 C 748.898 49.832,762.245 49.648,769.201 51.125 M369.458 52.531 C 387.346 57.190,400.373 71.065,405.625 91.053 C 407.031 96.400,407.390 103.928,407.734 135.176 L 408.148 172.853 405.324 173.176 C 403.771 173.354,395.750 173.275,387.500 173.000 L 372.500 172.500 372.248 138.000 C 372.109 119.025,371.709 102.825,371.359 102.000 C 371.009 101.175,370.632 99.671,370.522 98.658 C 370.411 97.645,369.911 96.520,369.410 96.158 C 368.910 95.796,368.354 94.825,368.175 94.000 C 367.019 88.662,358.192 84.053,349.066 84.022 C 341.339 83.996,335.566 86.453,330.919 91.745 C 324.569 98.977,324.548 99.115,324.000 137.500 L 323.500 172.500 305.772 172.773 L 288.045 173.046 288.042 128.151 L 288.040 83.257 292.667 81.489 C 295.213 80.517,299.514 77.583,302.226 74.969 C 307.025 70.343,307.328 70.214,313.564 70.120 C 317.931 70.055,321.471 69.319,324.684 67.809 C 329.667 65.466,336.502 59.144,337.520 55.936 C 338.929 51.498,357.777 49.489,369.458 52.531 M593.000 112.500 L 593.000 173.000 575.000 173.000 L 557.000 173.000 557.000 112.500 L 557.000 52.000 575.000 52.000 L 593.000 52.000 593.000 112.500 M211.734 82.025 C 205.855 83.509,200.597 86.556,197.155 90.476 C 195.420 92.452,194.000 94.504,194.000 95.035 C 194.000 95.629,203.601 96.000,219.000 96.000 C 240.292 96.000,244.000 95.783,244.000 94.535 C 244.000 92.036,237.713 85.761,233.218 83.772 C 228.224 81.563,217.139 80.662,211.734 82.025 M750.205 83.894 C 738.647 87.886,731.954 97.073,731.208 109.971 C 730.602 120.440,732.762 127.701,738.255 133.661 C 744.396 140.323,748.881 142.276,759.241 142.801 C 767.173 143.203,768.485 142.998,773.422 140.582 C 779.652 137.534,784.376 132.609,787.359 126.051 C 790.384 119.399,790.257 106.415,787.096 99.286 C 780.901 85.312,765.139 78.736,750.205 83.894 M470.056 84.540 C 461.008 87.063,454.655 93.173,451.603 102.285 C 448.132 112.647,450.338 124.695,457.117 132.396 C 462.673 138.708,467.861 141.213,476.500 141.757 C 496.447 143.012,509.896 127.349,506.664 106.628 C 504.104 90.215,486.908 79.840,470.056 84.540 M42.414 103.917 C 42.186 104.146,42.000 111.683,42.000 120.667 L 42.000 137.000 44.750 137.034 C 72.699 137.384,93.460 136.756,97.944 135.424 C 114.676 130.455,115.237 115.281,99.000 106.897 C 95.160 104.914,92.739 104.530,82.500 104.277 C 56.764 103.643,42.811 103.518,42.414 103.917  " fill="#E9542D" stroke="#E9542D" stroke-width="0.5" stroke-linejoin="round" stroke-linecap="round" /></svg>